<?xml version="1.0" encoding="UTF-8"?> <svg xmlns="http://www.w3.org/2000/svg" width="88" height="41" viewBox="0 0 88 41" fill="none"> <path d="M13.0372 16.18C8.06522 14.517 7.02222 12.397 7.02222 10.912C7.02222 9.41099 8.08522 7.272 13.1522 5.605L13.9332 7.98C10.8862 8.982 9.52222 10.175 9.52222 10.912C9.52222 11.637 10.8542 12.814 13.8302 13.809L13.0372 16.18Z" fill="#343835"></path> <path d="M41.529 16.182L40.748 13.807C43.795 12.805 45.16 11.612 45.16 10.875C45.16 10.15 43.828 8.973 40.851 7.978L41.644 5.607C46.616 7.27 47.66 9.39 47.66 10.875C47.659 12.377 46.596 14.515 41.529 16.182Z" fill="#343835"></path> <path d="M27.5942 16.403C21.7882 16.403 15.9102 14.619 15.9102 11.209C15.9102 7.799 21.7882 6.015 27.5942 6.015C33.4012 6.015 39.2792 7.799 39.2792 11.209C39.2792 14.619 33.4012 16.403 27.5942 16.403ZM27.5942 8.515C21.5342 8.515 18.4102 10.403 18.4102 11.209C18.4102 12.015 21.5352 13.903 27.5942 13.903C33.6532 13.903 36.7792 12.015 36.7792 11.209C36.7792 10.403 33.6542 8.515 27.5942 8.515Z" fill="#343835"></path> <path d="M86.297 19.916H55.19V11.208C55.19 4.819 43.327 0 27.595 0C11.864 0 0 4.818 0 11.208V29.035C0 35.424 11.863 40.241 27.595 40.241H86.298C86.988 40.241 87.548 39.681 87.548 38.991V21.166C87.547 20.476 86.987 19.916 86.297 19.916ZM45.336 19.916C48.464 18.876 50.986 17.557 52.69 16.027V19.916H45.336ZM27.594 2.501C42.383 2.501 52.689 7.09 52.689 11.209C52.689 15.328 42.383 19.917 27.594 19.917C12.805 19.917 2.499 15.328 2.499 11.209C2.499 7.09 12.806 2.501 27.594 2.501ZM73.069 37.742H68.62V33.908H66.12V37.742H62.434V30.043H59.934V37.742H56.248V33.908H53.748V37.742H50.063V30.043H47.563V37.742H43.878V33.908H41.378V37.742H37.694V30.043H35.194V37.742H31.508V33.908H29.008V37.742H27.594C26.823 37.742 26.069 37.726 25.323 37.703V30.043H22.823V37.575C21.549 37.485 20.319 37.362 19.137 37.207V33.236H16.637V36.823C15.334 36.591 14.102 36.321 12.952 36.018V27.981H10.452V35.271C9.056 34.798 7.824 34.274 6.767 33.718V27.981H4.267V32.068C3.119 31.078 2.498 30.044 2.498 29.036V16.027C6.776 19.87 16.16 22.416 27.593 22.416H73.068V37.742H73.069ZM85.047 37.742H75.569V22.416H85.047V37.742Z" fill="#343835"></path> <path d="M81.4099 25.918H78.9099V34.315H81.4099V25.918Z" fill="#343835"></path> </svg> 