<?xml version="1.0" encoding="UTF-8"?> <svg xmlns="http://www.w3.org/2000/svg" width="103" height="106" viewBox="0 0 103 106" fill="none"> <path d="M74.5201 41.5925C74.5201 40.247 73.6954 39.0752 72.4802 38.5544C64.3207 35.1257 57.9408 28.7891 54.4686 20.6296C53.9478 19.371 52.7326 18.5898 51.3872 18.5898C50.0417 18.5898 48.8699 19.371 48.3057 20.6296C44.877 28.7457 38.497 35.0823 30.3809 38.511C29.1657 39.0318 28.3411 40.2036 28.3411 41.5491C28.3411 42.8945 29.1223 44.0663 30.3375 44.6305C38.1498 48.0592 44.66 54.6562 48.2623 62.7723C48.7831 63.9875 49.9983 64.7688 51.3004 64.7688C52.6024 64.7688 53.8176 63.9875 54.3384 62.7289C57.7237 54.8733 64.3641 48.2763 72.4802 44.6739C73.7388 44.1097 74.5201 42.8945 74.5201 41.5925ZM51.3004 59.387C47.4376 51.6616 41.1444 45.325 33.6794 41.5925C41.4049 37.8599 47.6112 31.697 51.3438 23.9715C55.1197 31.7404 61.3261 37.9467 69.1383 41.6359C61.4129 45.542 55.0329 51.8786 51.3004 59.387Z" fill="#343835"></path> <path d="M72.1763 75.9229C72.5669 76.0531 73.0877 76.2267 73.7387 76.1833C74.7804 76.1399 75.7352 75.7059 76.473 74.9681C77.2542 74.1868 77.6882 73.1452 77.6448 72.0602C77.558 65.2028 81.8982 59.2134 88.4084 57.1735C88.8424 57.0433 89.3198 56.8263 89.667 56.5225C90.535 55.8715 91.0993 54.9167 91.2295 53.9184C91.4031 52.8334 91.1427 51.7484 90.4916 50.8369C86.4119 45.325 86.3685 37.9467 90.4482 32.5216L90.9691 31.914L91.1861 31.2629C91.5333 30.2213 91.4031 29.0929 90.9256 28.1815C90.4048 27.1832 89.5368 26.4454 88.5386 26.1416C82.0284 24.0583 77.7316 18.1123 77.7751 11.2983C77.7751 10.7775 77.6882 10.3001 77.558 9.8661C77.2108 8.86787 76.473 8.04324 75.4748 7.52243C74.4765 7.04501 73.4349 7.00161 72.4367 7.34882C70.8308 7.91304 69.1816 8.17345 67.4889 8.17345C62.4978 8.17345 57.8105 5.74297 54.946 1.70665C54.6422 1.31604 54.2949 0.968828 53.9911 0.751822C52.1683 -0.550218 49.6076 -0.116204 48.3056 1.70665C45.4411 5.78637 40.7537 8.17345 35.7626 8.17345C34.0699 8.17345 32.4207 7.91304 30.8582 7.34882C29.4694 6.87141 27.6899 7.21862 26.6483 8.34705C25.8671 9.12827 25.4331 10.1699 25.4765 11.2549C25.5633 18.1123 21.2231 24.0583 14.7564 26.0982C14.2789 26.2284 13.8883 26.4454 13.4543 26.7492C11.6749 28.0946 11.2842 30.6553 12.6297 32.4782C16.7094 37.9901 16.7094 45.3684 12.6297 50.8803C12.3693 51.2275 12.1523 51.6616 12.0221 52.0522C11.7183 53.0938 11.8051 54.1354 12.3259 55.1771C12.8467 56.1319 13.7147 56.8697 14.713 57.1735C21.2231 59.2568 25.5199 65.2462 25.4331 71.9734C25.3897 72.4942 25.4765 72.9716 25.6501 73.449C25.9973 74.4473 26.7351 75.2719 27.7333 75.7927C28.7316 76.2701 29.7732 76.3135 30.7714 75.9663C32.4207 75.4021 34.1133 75.1417 35.806 75.1417C40.8405 75.1417 45.3543 77.5287 48.3056 81.6519C48.566 81.9991 48.9132 82.3463 49.2604 82.6067C49.9548 83.1275 50.7794 83.3879 51.6041 83.3879C51.8211 83.3879 52.0815 83.3879 52.2985 83.3445C53.3835 83.1709 54.3383 82.5633 54.946 81.6953C58.6785 76.0531 65.6661 73.7528 72.1763 75.9229ZM51.4739 79.2214C47.8282 74.0566 41.8822 70.9751 35.589 70.9751C33.4623 70.9751 31.3357 71.3224 29.3392 72.1036C29.4694 63.4667 23.9574 55.8715 15.7546 53.3542C20.9193 46.3666 20.9193 36.9919 15.7112 30.1345C23.9574 27.5738 29.4694 20.0654 29.426 11.3851C31.3791 12.0362 33.4623 12.3834 35.5456 12.3834C41.8822 12.3834 47.8281 9.30188 51.3437 4.13712C54.9894 9.30188 60.9787 12.3834 67.3153 12.3834C69.442 12.3834 71.5687 12.0362 73.4783 11.2983C73.3915 19.8484 78.8167 27.3568 86.9761 30.0477C81.8982 36.9919 81.8982 46.2364 86.9761 53.224C78.7733 55.8715 73.3047 63.4233 73.4783 71.9734H73.4349C65.2755 69.1957 56.3348 72.1036 51.4739 79.2214Z" fill="#343835"></path> <path d="M37.9327 81.4349C36.9779 80.8272 35.6759 81.0876 35.0683 82.0425L24.9124 97.5801L19.3136 86.1222L7.68203 86.0788L18.3154 69.8033C18.9664 68.8485 18.6626 67.5464 17.7077 66.9388C16.7529 66.2878 15.4509 66.5916 14.8432 67.5464L0 90.2453L16.7529 90.2887L24.4349 106L38.5838 84.2993C39.1914 83.3445 38.8876 82.0425 37.9327 81.4349Z" fill="#343835"></path> <path d="M88.0179 67.503C87.3669 66.5482 86.1082 66.2878 85.1534 66.8954C84.1986 67.5464 83.9382 68.8051 84.5458 69.7599L95.2225 86.0788L83.5909 86.1222L77.9922 97.5801L67.7929 81.9991C67.1418 81.0442 65.8832 80.7838 64.9284 81.3914C63.9736 82.0425 63.7131 83.3011 64.3208 84.2559L78.513 106L86.195 90.2887L102.948 90.2453L88.0179 67.503Z" fill="#343835"></path> </svg> 