<?xml version="1.0" encoding="UTF-8"?> <svg xmlns="http://www.w3.org/2000/svg" width="106" height="124" viewBox="0 0 106 124" fill="none"> <path d="M81.6292 26.1174L80.8508 28.5793C87.0957 30.5541 91.7988 35.7706 93.125 42.1934L95.6538 41.6712C94.1387 34.3338 88.7647 28.3738 81.6292 26.1174Z" fill="#343835"></path> <path d="M95.1106 52.0743C95.7525 50.0442 96.0785 47.9457 96.0789 45.8367L93.4967 45.8361C93.4963 47.6808 93.211 49.5177 92.6487 51.2955L95.1106 52.0743Z" fill="#343835"></path> <path d="M11.8331 76.0827L9.75098 77.6101C12.8953 81.8972 17.0632 85.4084 21.8044 87.7644L22.9534 85.4521C18.5802 83.2787 14.7349 80.0387 11.8331 76.0827Z" fill="#343835"></path> <path d="M8.98331 71.3628L6.66211 72.4943C7.22331 73.6457 7.85811 74.7763 8.54864 75.8557L10.7235 74.4641C10.0866 73.4684 9.50105 72.425 8.98331 71.3628Z" fill="#343835"></path> <path d="M13.6013 53.0953L16.1071 53.7185C16.3266 52.8369 16.6075 51.9609 16.9425 51.1146L14.5415 50.1641C14.1642 51.1165 13.8481 52.1027 13.6013 53.0953Z" fill="#343835"></path> <path d="M84.6211 16.6557C77.9561 14.5475 70.7091 14.7913 64.2149 17.3428C57.8155 19.8572 52.3956 24.4949 48.9537 30.4021L51.185 31.7021C57.7171 20.4905 71.452 15.1978 83.8423 19.1176C98.5752 23.7779 106.77 39.5555 102.11 54.2883C97.4491 69.021 81.6722 77.2161 66.9389 72.5556C54.3714 68.58 46.1942 56.1901 47.4954 43.0946L44.9259 42.8392C44.242 49.7208 45.9553 56.7206 49.7497 62.5493C51.0492 64.5451 52.5751 66.3712 54.2849 67.9975C51.7817 72.8816 47.4057 76.5858 42.1494 78.23C36.9186 79.8663 31.3651 79.3679 26.5104 76.827C21.6551 74.2857 18.0805 70.0054 16.4444 64.7747C15.5602 61.948 15.296 59.0377 15.6597 56.1245L13.0972 55.8049C12.6879 59.0869 12.9849 62.3642 13.9801 65.5459C15.8223 71.4349 19.8472 76.254 25.3133 79.1149C28.6667 80.8701 32.3163 81.7597 35.9964 81.7597C38.3143 81.7597 40.645 81.4066 42.9206 80.6947C48.6337 78.9076 53.4233 74.9592 56.2836 69.7407C56.9902 70.3054 57.7217 70.8393 58.4757 71.3398C55.2462 77.0721 50.049 81.2856 43.7256 83.2643C37.1517 85.321 30.1694 84.6944 24.0659 81.5C17.9623 78.3055 13.4682 72.9255 11.4113 66.3512C7.79076 54.7736 12.8308 42.0759 23.3956 36.159L22.1339 33.906C16.541 37.0384 12.1304 42.0553 9.7143 48.0327C7.26485 54.0927 6.99221 60.8723 8.94674 67.1222C12.7394 79.2446 23.9626 87.0268 36.0422 87.0257C38.8411 87.0255 41.688 86.6076 44.4968 85.7288C51.429 83.5597 57.1314 78.9492 60.6871 72.6765C62.4228 73.6283 64.2553 74.4152 66.1608 75.018C69.2209 75.9859 72.3207 76.4461 75.372 76.4459C88.3646 76.4453 100.451 68.0978 104.572 55.0675C109.661 38.9768 100.711 21.7455 84.6211 16.6557Z" fill="#343835"></path> <path d="M56.6889 62.2758C58.1136 63.9006 59.7409 65.3286 61.5228 66.5181C63.4814 67.8321 65.6214 68.8604 67.8828 69.5738C70.3589 70.3573 72.8951 70.7457 75.4199 70.7455C79.3595 70.7455 83.2694 69.7991 86.866 67.9308C92.7677 64.8655 97.1226 59.6858 99.1285 53.3454C101.134 47.0054 100.551 40.2632 97.4854 34.3611C94.4201 28.4588 89.2401 24.1043 82.9001 22.0994C76.7424 20.1514 70.1631 20.6523 64.3729 23.51C59.1259 26.0999 55.0197 30.3785 52.6613 35.6677C47.1685 31.6859 40.5087 29.8102 33.7239 30.3671L33.9357 32.9407C40.6273 32.39 47.1848 34.4442 52.4009 38.7242C56.2818 41.9055 59.1299 46.133 60.6377 50.9495C61.5919 53.9987 61.9723 57.1458 61.769 60.3025L64.3458 60.4684C64.5698 56.9941 64.1515 53.5317 63.1023 50.1783C61.5381 45.1813 58.6604 40.7614 54.7557 37.3378C59.1454 26.6334 70.9849 21.0377 82.1216 24.5612C87.8038 26.3582 92.4464 30.261 95.1941 35.5509C97.9416 40.841 98.4645 46.8836 96.6666 52.5662C94.8687 58.2488 90.9655 62.8914 85.676 65.6389C80.3857 68.3866 74.3433 68.9093 68.6607 67.111C66.633 66.4712 64.7157 65.5505 62.9592 64.3719C61.5172 63.4092 60.1908 62.2715 59.0069 60.9883C59.2063 59.0385 59.1575 57.0709 58.8556 55.129C58.6789 53.9933 58.414 52.8578 58.0691 51.7541C57.008 48.3623 55.2403 45.3444 52.8156 42.7837C49.8858 39.6872 46.1582 37.4609 42.0361 36.3455C37.7995 35.199 33.3359 35.289 29.1288 36.6055C23.1452 38.4774 18.2837 42.5859 15.4392 48.1741L17.7402 49.3453C20.2669 44.3818 24.5852 40.7325 29.8996 39.0698C37.2624 36.7667 45.1173 38.7171 50.5441 44.1544C50.098 50.724 52.32 57.2975 56.6889 62.2758ZM56.3039 55.5265C56.4186 56.2641 56.4913 57.0061 56.5245 57.7494C54.5422 54.6008 53.3677 50.9951 53.1198 47.2944C54.1848 48.8966 55.0165 50.6461 55.6044 52.5253C55.9114 53.5072 56.1468 54.5168 56.3039 55.5265Z" fill="#343835"></path> <path d="M14.1215 18.7202L10.26 27.8632L28.7296 35.3327L39.6487 18.6687L31.2651 13.3567L14.1215 18.7202ZM34.8062 18.6571L30.167 20.1085L27.6612 17.1898L30.8937 16.1784L34.8062 18.6571ZM19.661 26.101L23.5602 30.4568L15.7868 27.3132L19.661 26.101ZM28.212 23.4256L27.2997 30.7624L22.3685 25.2538L28.212 23.4256ZM21.5546 22.8031L21.9502 18.9767L24.9785 18.0292L27.4843 20.948L21.5546 22.8031ZM30.9197 22.5787L34.7937 21.3667L30.1982 28.3796L30.9197 22.5787ZM19.2674 19.8159L18.8719 23.6423L14.2325 25.0937L16.0345 20.8273L19.2674 19.8159Z" fill="#343835"></path> <path d="M22.578 11.3456L19.1021 0.235531L16.6374 1.00665L20.1133 12.1167L22.578 11.3456Z" fill="#343835"></path> <path d="M15.6871 13.9324L5.37329 8.53451L4.17592 10.8224L14.4897 16.2202L15.6871 13.9324Z" fill="#343835"></path> <path d="M34.938 1.19728L32.6504 0L27.2525 10.3138L29.5402 11.5111L34.938 1.19728Z" fill="#343835"></path> </svg> 