<?xml version="1.0" encoding="UTF-8"?> <svg xmlns="http://www.w3.org/2000/svg" width="92" height="74" viewBox="0 0 92 74" fill="none"> <path d="M69.5782 47.5277L69.6253 47.9045C69.8608 49.5532 70.1434 51.6257 71.6507 53.2273C72.9225 54.5933 74.8067 55.394 76.4553 55.2998C76.5495 55.2998 76.6437 55.2998 76.7379 55.2998C78.3395 55.2998 80.0352 54.5462 81.2599 53.2273C82.7672 51.6257 83.0498 49.5532 83.2853 47.9045L83.3325 47.5277C83.3796 47.1509 83.4738 46.774 83.5209 46.3501C83.7093 45.2667 83.9448 44.042 83.8977 42.8173C83.8506 39.9911 82.2962 38.5309 81.0244 37.8243C79.7055 37.0707 78.0568 36.6938 76.5024 36.7409C74.8067 36.6938 73.2051 37.0236 71.8391 37.8243C70.5673 38.5309 69.06 39.9911 68.9658 42.8173C68.9187 44.042 69.1542 45.2667 69.3426 46.3501C69.4839 46.774 69.5311 47.1509 69.5782 47.5277ZM73.6762 40.9803C74.4298 40.5563 75.3719 40.3208 76.5495 40.3679C77.5858 40.3208 78.5279 40.5563 79.2815 40.9803C79.8939 41.31 80.2707 41.781 80.3178 42.9115C80.3178 43.7594 80.1765 44.7957 79.9881 45.7378C79.8939 46.2088 79.8468 46.6327 79.7526 47.0567L79.7055 47.4335C79.517 48.7524 79.3757 50.0242 78.6692 50.7779C78.1039 51.3902 77.2561 51.767 76.6437 51.7199H76.5024H76.3611C75.7488 51.767 74.9009 51.3902 74.3356 50.7779C73.6291 50.0242 73.4407 48.7995 73.2994 47.4335L73.2522 47.0567C73.2051 46.6327 73.1109 46.2088 73.0167 45.7378C72.8283 44.7957 72.687 43.7594 72.687 42.9115C72.6399 41.781 73.0638 41.31 73.6762 40.9803Z" fill="#343835"></path> <path d="M91.6697 70.5614C91.4342 68.6302 91.2458 66.746 91.0103 64.8619C91.0103 64.6263 90.9632 64.4379 90.9161 64.3437C90.8218 63.7785 90.6805 63.3545 90.4921 62.9777C90.3037 62.648 90.1153 62.3183 89.8327 62.0827L89.5971 61.8472L89.3145 61.7059C89.1732 61.6588 89.0319 61.5646 88.8435 61.5175L88.3253 61.3291H88.2782C86.8651 60.858 81.9663 59.3978 81.4011 59.2094L81.1656 59.1152H71.7448L67.0816 60.5754C66.1395 60.8581 65.5742 61.8943 65.904 62.8364C66.1866 63.7785 67.2229 64.3437 68.1649 64.014L72.3101 62.7422H80.6474C83.0968 63.4959 86.6767 64.5792 87.3833 64.8148C87.3833 64.8619 87.4304 64.9561 87.4304 65.0503C87.4304 65.0974 87.4304 65.1916 87.4775 65.2387C87.6659 66.8873 87.8072 68.536 87.9956 70.1846H69.1541C68.1649 70.1846 67.3642 70.9854 67.3642 71.9745C67.3642 72.9637 68.1649 73.7645 69.1541 73.7645H88.4196H89.079C89.8327 73.7645 90.5392 73.4348 91.0103 72.9166C91.5284 72.3514 91.7639 71.6448 91.6697 70.8911V70.5614Z" fill="#343835"></path> <path d="M8.3904 47.5277L8.4375 47.9045C8.67302 49.5532 8.95564 51.6257 10.4159 53.2273C11.6877 54.5933 13.5247 55.394 15.2204 55.2998C15.3147 55.2998 15.4089 55.2998 15.5031 55.2998C17.1046 55.2998 18.8003 54.5462 20.025 53.2273C21.5323 51.6257 21.815 49.5532 22.0505 47.9045L22.0976 47.5277C22.1447 47.1509 22.2389 46.774 22.286 46.3501C22.4744 45.2667 22.7099 44.042 22.6628 42.8173C22.6157 39.9911 21.0613 38.5309 19.7895 37.8243C18.4235 37.0707 16.822 36.6938 15.2675 36.7409C13.5718 36.6938 11.9703 37.0236 10.6043 37.8243C9.33248 38.5309 7.82516 39.9911 7.73095 42.8173C7.68384 44.042 7.91936 45.2667 8.10778 46.3501C8.24909 46.774 8.3433 47.1509 8.3904 47.5277ZM12.4413 40.9803C13.195 40.5563 14.1371 40.3208 15.3147 40.3679C16.3509 40.3208 17.293 40.5563 18.0467 40.9803C18.659 41.31 19.0358 41.781 19.083 42.9115C19.083 43.7594 18.9416 44.7957 18.7532 45.7378C18.659 46.2088 18.6119 46.6327 18.5177 47.0567L18.4706 47.4335C18.2822 48.7524 18.1409 50.0242 17.4343 50.7308C16.8691 51.3431 16.0212 51.7199 15.4089 51.6728H15.2675H15.1262C14.5139 51.7199 13.666 51.3431 13.1008 50.7308C12.3942 49.9771 12.2058 48.7524 12.0645 47.4335L12.0174 47.0567C11.9703 46.6327 11.8761 46.2088 11.7819 45.7378C11.5935 44.7486 11.4521 43.7594 11.4521 42.9115C11.405 41.781 11.829 41.31 12.4413 40.9803Z" fill="#343835"></path> <path d="M24.6883 60.5754C22.6628 59.916 20.2134 59.2094 20.2134 59.2094L19.9779 59.1152H10.5101L10.2745 59.2094C9.66219 59.3978 4.76339 60.9052 3.39739 61.3291L2.83214 61.5175C2.69083 61.5646 2.54952 61.6117 2.45531 61.6588L2.03138 61.8001L1.79586 62.0827C1.51324 62.3654 1.32482 62.648 1.13641 62.9777C0.947991 63.3545 0.806679 63.7785 0.712472 64.3437V64.5321C0.712472 64.6735 0.665368 64.8148 0.665368 64.9561C0.476953 66.8402 0.241434 68.6773 0.0530192 70.5614L0.00591552 70.9383C-0.0411882 71.6919 0.19433 72.3985 0.665368 72.9637C1.18351 73.529 1.89007 73.8116 2.59662 73.8116H22.5686C23.5578 73.8116 24.3586 73.0108 24.3586 72.0216C24.3586 71.0325 23.5578 70.2317 22.5686 70.2317H3.72711C3.91553 68.5831 4.10394 66.9344 4.29236 65.2858L4.33946 64.9561C4.33946 64.909 4.33946 64.8619 4.33946 64.8619C5.04602 64.6263 8.6259 63.543 11.0753 62.7893H19.4127C20.0721 62.9777 21.9563 63.5901 23.6049 64.0611C24.547 64.3437 25.5833 63.8256 25.8659 62.8835C26.1485 61.8472 25.6304 60.8581 24.6883 60.5754Z" fill="#343835"></path> <path d="M64.3968 71.739C64.2555 70.5614 64.1142 69.6665 63.9728 68.8186C63.8315 67.9236 63.6902 67.0757 63.596 65.8981C63.596 65.6626 63.5489 65.4271 63.5018 65.2387C63.4076 64.5792 63.2192 64.0611 63.0308 63.6843C62.8424 63.2603 62.5597 62.8835 62.23 62.6009L61.9945 62.4125L61.7119 62.2712C61.4763 62.177 61.1937 62.0356 60.864 61.9414L60.5814 61.8472H60.5343C58.9327 61.3291 52.6208 59.3978 51.8201 59.1623L50.9722 58.8797L45.6966 62.6009L40.6565 58.8797L39.8086 59.1623C39.055 59.3978 32.696 61.3291 31.0944 61.8472L30.7647 61.9414C30.4821 62.0356 30.1995 62.1298 29.9639 62.2712L29.6813 62.4125L29.4458 62.6009C29.1161 62.9306 28.8334 63.3074 28.6921 63.6372C28.4566 64.1082 28.3153 64.6263 28.2211 65.1916C28.174 65.4271 28.1269 65.6626 28.1269 65.851C27.9856 67.0757 27.8443 67.9707 27.703 68.8186C27.5616 69.6665 27.4203 70.5143 27.279 71.739C27.0906 72.6811 27.6559 73.6232 28.5979 73.8587C29.54 74.0942 30.5292 73.529 30.7647 72.5869L30.8118 72.2572C30.9531 71.0796 31.0944 70.2317 31.1886 69.4309C31.3299 68.4889 31.4713 67.5939 31.6126 66.2279C31.6126 66.1337 31.6126 65.9924 31.6597 65.851C31.7068 65.6626 31.7068 65.5684 31.7539 65.4742L31.8952 65.4271C32.5075 65.1916 37.265 63.7314 39.9028 62.9777L45.7437 67.17L51.6317 62.9777C54.2224 63.7785 58.9798 65.2387 59.6393 65.4271L59.7806 65.4742C59.8277 65.5684 59.8277 65.7097 59.8748 65.8981C59.8748 65.9924 59.9219 66.1337 59.9219 66.275C60.0632 67.5939 60.2045 68.4889 60.3459 69.4309C60.4872 70.2788 60.6285 71.0796 60.7227 72.2572L60.7698 72.5398V72.5869C60.9582 73.4348 61.759 74 62.5597 74C62.701 74 62.8424 74 62.9837 73.9529C63.9728 73.7174 64.5381 72.8224 64.3026 71.8332L64.3968 71.739Z" fill="#343835"></path> <path d="M34.2974 52.4265V52.8504C34.2974 53.6983 34.6742 54.499 35.2865 55.0172C35.8989 55.5353 36.6997 55.7237 37.5004 55.5353C39.1019 55.2056 40.7035 54.923 42.2108 54.7817C43.2 54.6875 43.9065 53.7925 43.8123 52.8033C43.7181 51.8141 42.8231 51.0605 41.834 51.2018C40.7035 51.296 39.5259 51.4844 38.3483 51.6728C38.678 49.9771 38.4425 48.3285 38.207 46.8211C38.0186 45.5493 37.8301 44.3717 38.0186 43.2884C38.207 42.0637 38.7251 40.839 39.4788 39.7556C40.9861 37.5888 43.4355 36.2228 45.7907 36.2228C45.9791 36.2228 46.1675 36.2228 46.3088 36.2228C46.827 36.2699 47.3451 36.3641 47.8161 36.5054C49.6061 37.0236 51.2547 38.3425 52.3381 40.0382C53.0447 41.1687 53.4686 42.4876 53.657 43.8536C53.7041 44.1833 53.7041 44.5602 53.7041 45.0312V45.2667C53.657 45.8791 53.5628 46.4443 53.4686 47.0096C53.2802 48.3285 53.0918 49.6474 53.2331 51.1076C53.2331 51.296 53.2802 51.4844 53.3273 51.6728C52.1497 51.4844 51.0192 51.296 49.8887 51.1547C48.8995 51.0134 48.0046 51.767 47.9103 52.7562C47.8161 53.7454 48.5227 54.6404 49.5119 54.7346C51.0192 54.923 52.6207 55.1585 54.1751 55.4882C54.3636 55.5353 54.5049 55.5353 54.6933 55.5353C55.3056 55.5353 55.8709 55.3469 56.3419 54.923C57.0014 54.4048 57.3311 53.6041 57.3311 52.7562C57.3311 52.0968 57.0956 51.4844 56.9543 51.1076C56.9072 50.9663 56.813 50.7307 56.813 50.6836C56.7188 49.6945 56.8601 48.6111 57.0014 47.4806C57.0956 46.8211 57.1898 46.1617 57.2369 45.5493C57.2369 45.408 57.2369 45.3138 57.284 45.1254C57.3311 44.5131 57.284 43.9478 57.2369 43.3826C57.0014 41.4984 56.389 39.7085 55.3998 38.154C53.8454 35.6575 51.5373 33.8205 48.8524 33.0197C48.1459 32.7842 47.3922 32.6429 46.5443 32.5958C46.3088 32.5958 46.0262 32.5487 45.7907 32.5487C42.2108 32.5487 38.7251 34.4328 36.5112 37.6359C35.475 39.1432 34.7213 40.8861 34.4387 42.676C34.2032 44.2775 34.3916 45.832 34.6271 47.2922C34.9097 49.0821 35.1452 50.6365 34.4387 51.9554L34.2974 52.4265Z" fill="#343835"></path> <path d="M71.068 10.3207L72.6709 12.6595C73.126 13.3236 73.7961 13.8104 74.5683 14.0381L77.2879 14.8397C77.6249 14.9391 77.757 15.3458 77.5428 15.6242L75.8138 17.8714C75.3229 18.5094 75.0669 19.2972 75.089 20.1019L75.167 22.9362C75.1767 23.2874 74.8307 23.5387 74.4997 23.421L71.8282 22.4711C71.0697 22.2013 70.2414 22.2013 69.4829 22.4711L66.8114 23.421C66.4804 23.5387 66.1344 23.2874 66.1441 22.9362L66.2221 20.1019C66.2442 19.2972 65.9882 18.5094 65.4973 17.8714L63.7683 15.6242C63.5541 15.3458 63.6862 14.9391 64.0232 14.8397L66.7428 14.0381C67.515 13.8104 68.1851 13.3236 68.6402 12.6595L70.2431 10.3207C70.4417 10.0309 70.8694 10.0309 71.068 10.3207Z" stroke="#343835" stroke-width="3"></path> <path d="M46.3386 3.25515L49.1873 7.41187C49.6424 8.07593 50.3126 8.56279 51.0848 8.79042L55.9183 10.2153C56.2553 10.3146 56.3875 10.7213 56.1732 10.9998L53.1003 14.9936C52.6094 15.6317 52.3534 16.4194 52.3755 17.2242L52.5141 22.2615C52.5238 22.6127 52.1778 22.864 51.8468 22.7463L47.0988 21.058C46.3403 20.7882 45.512 20.7882 44.7535 21.058L40.0055 22.7463C39.6745 22.864 39.3285 22.6127 39.3382 22.2615L39.4767 17.2242C39.4988 16.4194 39.2429 15.6317 38.752 14.9936L35.679 10.9998C35.4648 10.7213 35.5969 10.3146 35.9339 10.2153L40.7675 8.79042C41.5397 8.56279 42.2098 8.07593 42.6649 7.41187L45.5137 3.25515C45.7123 2.96537 46.14 2.96537 46.3386 3.25515Z" stroke="#343835" stroke-width="3"></path> <path d="M21.609 10.3207L23.2119 12.6595C23.667 13.3236 24.3371 13.8104 25.1093 14.0381L27.8289 14.8397C28.1659 14.9391 28.298 15.3458 28.0838 15.6242L26.3548 17.8714C25.8639 18.5094 25.6079 19.2972 25.6301 20.1019L25.708 22.9362C25.7177 23.2874 25.3717 23.5387 25.0407 23.421L22.3692 22.4711C21.6107 22.2013 20.7824 22.2013 20.0239 22.4711L17.3525 23.421C17.0214 23.5387 16.6755 23.2874 16.6851 22.9362L16.7631 20.1019C16.7852 19.2972 16.5292 18.5094 16.0383 17.8714L14.3093 15.6242C14.0951 15.3458 14.2272 14.9391 14.5642 14.8397L17.2838 14.0381C18.056 13.8104 18.7262 13.3236 19.1813 12.6595L20.7841 10.3207C20.9827 10.0309 21.4104 10.0309 21.609 10.3207Z" stroke="#343835" stroke-width="3"></path> </svg> 