<?xml version="1.0" encoding="UTF-8"?> <svg xmlns="http://www.w3.org/2000/svg" width="268" height="55" viewBox="0 0 268 55" fill="none"> <path d="M14.7 15.7V11.3H26.4V23.6C26.4 23.6 22.6 27.3 14.7 27.3C8.20005 27.3 0.300049 22.3 0.300049 14.3C0.300049 4.4 10.5 0.1 15.7 0.1C22.3 0.1 26.4 3.8 26.4 3.8L22.9 7.3C22.9 7.3 20.5 4.2 16.5 4.2C12.5 4.2 9.80005 7.1 9.80005 13.7C9.80005 20.2 12.3 23.3 16.5 23.3C19.3 23.3 18.9 23.2 18.9 21.7V15.7H14.7ZM45 0C36.7 0 30 6.1 30 13.7C30 21.3 36.7 27.4 45 27.4C53.3 27.4 60 21.3 60 13.7C59.9 6.1 53.2 0 45 0ZM44.9001 24C41.9001 24 39.4001 19.3 39.4001 13.6C39.4001 7.8 41.9001 3.2 44.9001 3.2C47.9001 3.2 50.4001 7.9 50.4001 13.6C50.4001 19.3 47.9001 24 44.9001 24ZM221.7 0C213.4 0 206.7 6.1 206.7 13.7C206.7 21.3 213.4 27.4 221.7 27.4C230 27.4 236.7 21.3 236.7 13.7C236.7 6.1 230 0 221.7 0ZM221.6 24C218.6 24 216.1 19.3 216.1 13.6C216.1 7.8 218.6 3.2 221.6 3.2C224.6 3.2 227.1 7.9 227.1 13.6C227.1 19.3 224.7 24 221.6 24ZM64.4 1H73.2V21.8H82.7L82.1 26.4H64.4V1ZM99.9 1H86.7V26.5H99.8C103.5 26.5 113.1 23.6 113.1 13.4C113.2 3.4 103.4 1 99.9 1V1ZM98.3 22.5H95.4V4.9H98C98.8 4.9 104.1 5.6 104.1 13.3C104.1 21.3 99.4 22.5 98.3 22.5ZM127.5 1V17C127.5 19.7 129.6 27.7 140.4 27.7C151.2 27.7 152.9 19.3 152.9 17.8V1H144.2V18.1C144.2 19.5 143.5 22.1 140.2 22.1C137 22.1 136.3 19.3 136.3 18V1H127.5V1ZM160 26.5V1H165.1L180.9 14.8V1H186.6V26.5H180.9L165.5 13.4V26.5H160ZM241.1 26.5V1H246.1L261.9 14.8V1H267.7V26.5H262L246.6 13.4V26.5H241.1ZM193.3 1H202V26.5H193.3V1ZM60.9001 54.7L61.3 52.7C61.4 52.8 61.7 52.9 62 52.9C62.8 52.9 63.1 52.5 63.1 51.5V41.7H65.5V51.7C65.5 53.8 64.3 54.9 62.5 54.9C61.7 55 61.2001 54.8 60.9001 54.7ZM70.5 41.8H76.7V43.8H72.8V45.7H76.3V47.5H72.8V49.8H76.8V51.7H70.5V41.8ZM80.6 41.8H83.1L84.2 46.5C84.4 47.4 84.6 48.3 84.6 48.4L85 46.4L86.1 41.8H88.4L89.5 46.4C89.7 47.3 89.9 48.4 89.9 48.4C89.9 48.4 90.1 47.3 90.3 46.5L91.4 41.9H93.7L91 51.9H88.8L87.5 46.8C87.3 46 87.1 44.9 87.1 44.9C87.1 44.9 86.9 45.9 86.7 46.8L85.3 51.9H83.1L80.6 41.8V41.8ZM98 41.8H104.2V43.8H100.4V45.7H103.8V47.5H100.4V49.8H104.3V51.7H98V41.8ZM109 41.8H111.4V49.7H115.2V51.7H109V41.8ZM119.4 41.8H122.9C125.3 41.8 126.7 42.8 126.7 44.8C126.7 46.5 125.6 47.2 124.5 47.5C124.8 47.7 125.2 48.2 125.7 49L127.4 51.8H124.8L123.1 49C122.5 48.1 122.3 48 121.9 48H121.8V51.9H119.4V41.8V41.8ZM122.9 46.1C123.9 46.1 124.4 45.7 124.4 44.9C124.4 44.1 123.9 43.6 122.8 43.6H121.9V46.1H122.9ZM133.4 48L130.2 41.8H132.8L134.7 45.8H134.8L136.7 41.8H139L135.9 48V51.7H133.4V48ZM149.2 41.8H151.6V45.6H155.6V41.8H158V51.7H155.6V47.6H151.6V51.7H149.2V41.8ZM162.4 46.8C162.4 44.1 164.2 41.6 167.6 41.6C171 41.6 172.8 44 172.8 46.7C172.8 49.4 171.1 51.9 167.7 51.9C164.2 51.9 162.4 49.5 162.4 46.8V46.8ZM170.2 46.8C170.2 45.1 169.4 43.6 167.6 43.6C165.8 43.6 165 45.1 165 46.7C165 48.4 165.8 49.9 167.6 49.9C169.4 49.9 170.2 48.4 170.2 46.8ZM177.1 47.6V41.8H179.5V47.4C179.5 49.2 180 49.9 181.5 49.9C182.9 49.9 183.4 49.1 183.4 47.5V41.8H185.6V47.4C185.6 50.3 184.2 52 181.4 52C178.5 51.9 177.1 50.4 177.1 47.6V47.6ZM189.7 51L190.6 49.2C190.9 49.4 191.6 49.9 192.6 49.9C193.5 49.9 194.1 49.6 194.1 49C194.1 48.2 193.2 48.1 191.9 47.4C190.7 46.8 189.8 46 189.8 44.4C189.8 42.5 191.3 41.5 193.1 41.5C194.7 41.5 195.5 42 196 42.3L195.1 44.1C194.7 43.8 194 43.5 193.2 43.5C192.5 43.5 192 43.8 192 44.3C192 45 192.7 45.2 193.8 45.7C195.1 46.3 196.2 47.1 196.2 48.7C196.2 50.7 194.9 51.8 192.6 51.8C191.2 51.9 190.2 51.3 189.7 51V51ZM200.9 41.8H207.1V43.8H203.2V45.7H206.6V47.5H203.2V49.8H207.2V51.7H200.9V41.8Z" fill="white"></path> </svg> 